<svg xmlns="http://www.w3.org/2000/svg" xml:space="preserve" viewBox="0 0 407 408"><path fill="#fff" d="M1 146V1.022h406.915v407.83H1zm309 196.5c0 17.82-.026 35.641.018 53.462.012 4.961 2.008 7.013 6.84 7.02q39.221.056 78.444 0c5.468-.008 7.66-2.097 7.671-7.488.058-25.982.056-51.963.002-77.945-.011-5.346-2.237-7.518-7.653-7.527-26.148-.047-52.296-.04-78.444-.004-4.835.006-6.824 2.059-6.86 7-.062 8.16-.018 16.321-.018 25.482m-8 10c0-11.325.021-22.65-.008-33.974-.017-6.563-2.008-8.515-8.69-8.52q-38.22-.023-76.441 0c-6.293.004-7.85 1.596-7.855 8.026a64596 64596 0 0 0 0 76.94c.004 6.43 1.56 8.018 7.86 8.022q38.22.023 76.441 0c6.678-.005 8.672-1.96 8.685-8.526.027-13.656.008-27.312.008-41.968m-101-30.875C200.999 311.01 199.993 310 189.403 310c-24.65 0-49.299-.012-73.949.01-5.62.005-7.436 1.806-7.442 7.43q-.038 38.974-.002 77.947c.006 5.925 1.738 7.602 7.772 7.606q38.224.024 76.447 0c6.897-.003 8.763-1.916 8.766-8.948.013-23.817.005-47.634.005-72.42M7 329.503c0 21.984-.013 43.967.01 65.95.006 5.289 1.785 7.505 6.338 7.515 26.48.057 52.96.063 79.439 0 4.814-.012 7.16-2.26 7.173-6.982q.117-39.47.001-78.94c-.013-4.758-2.322-7-7.142-7.012-26.48-.067-52.959-.028-79.439-.032-4.358 0-6.35 2.302-6.372 6.513-.021 3.997-.007 7.994-.008 12.988M345.5 201c16.324 0 32.648.016 48.971-.008 6.424-.01 8.51-1.982 8.516-8.173.03-25.652.035-51.304-.005-76.955-.008-5.64-2.2-7.838-7.829-7.846-26.151-.039-52.303-.001-78.454-.03-4.56-.005-6.692 2.253-6.693 6.694-.007 26.484-.027 52.969.016 79.453.008 4.899 2.03 6.823 6.994 6.85 9.161.05 18.323.015 28.484.015M209 121.551c0 23.821-.01 47.642.007 71.463.005 6.39 1.576 7.976 7.887 7.98q38.23.023 76.46 0c6.641-.005 8.633-1.975 8.638-8.56q.03-37.98 0-75.96c-.006-6.396-1.991-8.456-8.229-8.462-25.82-.028-51.64-.024-77.46 0-5.283.004-7.188 1.902-7.296 7.065-.038 1.832-.007 3.665-.007 6.474m-8 .013v-2.998c-.002-9.232-1.344-10.566-10.642-10.566-24.82 0-49.64-.009-74.46.006-6.312.004-7.887 1.59-7.89 7.976q-.026 38.48-.001 76.96c.004 6.638 1.478 8.051 8.314 8.054q37.73.014 75.46.001c7.5-.002 9.215-1.773 9.217-9.487.005-22.988.002-45.976.002-69.946M82.486 108c-22.654 0-45.307-.012-67.961.01-5.665.005-7.49 1.777-7.511 7.346C6.97 126.849 7 138.343 7 149.836c0 14.659.027 29.317-.015 43.975-.013 4.276 1.52 7.159 6.208 7.165 26.651.038 53.303.047 79.954-.007 4.37-.008 6.814-2.46 6.823-6.828.052-26.485.063-52.97-.014-79.455-.013-4.39-2.64-6.593-6.983-6.673-3.164-.058-6.33-.012-10.487-.013M310 81.494c0 3.5-.015 6.999.004 10.498.034 6.417 1.568 7.998 7.898 8.002q38.243.023 76.485 0c6.696-.005 8.602-1.905 8.606-8.585.017-25.162.015-50.324.002-75.485-.004-7.003-1.888-8.914-8.815-8.918q-37.743-.022-75.486 0c-6.899.004-8.687 1.87-8.69 9.003-.01 21.496-.004 42.992-.004 65.485M230.502 7c-4.333 0-8.665-.02-12.998.005-6.62.038-8.494 1.935-8.498 8.694-.015 25.329-.012 50.657-.002 75.985.003 6.74 1.526 8.308 8.09 8.311q37.993.018 75.985 0c7.074-.003 8.912-1.807 8.916-8.778.013-24.995.01-49.99.002-74.984-.003-7.5-1.791-9.229-9.508-9.23C272.159 6.995 251.83 7 230.502 7m-49.007 93c3.832 0 7.665.036 11.497-.009 5.983-.068 7.99-2.084 7.997-8.188q.04-38.243 0-76.484c-.007-6.288-2.055-8.303-8.415-8.309-25.328-.024-50.656-.02-75.985-.003-6.678.005-8.578 1.91-8.582 8.607q-.026 38.243 0 76.485c.005 6.291 1.639 7.891 8.003 7.895 21.495.015 42.991.006 65.485.006M100 21.545q.001-2.5 0-4.997c-.013-7.867-1.709-9.545-9.69-9.546-24.988-.004-49.975-.015-74.962.007-6.211.006-8.323 1.954-8.331 7.842-.038 25.82-.041 51.64.003 77.46.01 5.749 2.055 7.68 7.825 7.683q38.23.022 76.46 0c6.899-.004 8.688-1.87 8.691-8.998.01-22.822.004-45.643.004-69.451M91.197 209c-24.975 0-49.95-.005-74.925.003-7.565.002-9.268 1.742-9.27 9.444-.006 24.975-.012 49.95.005 74.926.005 6.657 1.953 8.615 8.586 8.62 25.308.018 50.616.02 75.925-.002 6.415-.005 8.463-1.98 8.47-8.23.028-25.474.026-50.949.002-76.424-.006-6.23-1.597-7.85-8.793-8.337m39.304 93c20.808 0 41.616.02 62.424-.014 5.842-.01 8.043-2.049 8.053-7.63.048-25.968.05-51.937-.004-77.905-.01-5.165-2.177-7.408-7.243-7.42q-39.202-.092-78.405-.002c-5.087.011-7.288 2.24-7.299 7.365-.055 26.135-.06 52.27.006 78.405.012 5.025 2.288 7.09 7.486 7.182 4.66.083 9.322.019 14.982.019M209 252.5c0 13.816-.03 27.633.014 41.45.02 5.975 2.104 8.03 8.154 8.038 25.469.028 50.938.025 76.407.003 6.382-.006 8.407-1.991 8.414-8.283q.039-38.204 0-76.407c-.006-6.298-2.029-8.286-8.406-8.291-25.302-.023-50.605-.02-75.907-.003-6.695.004-8.652 1.934-8.668 8.534-.028 11.32-.008 22.64-.008 34.959M390.406 209c-23.973 0-47.946-.01-71.92.008-5.924.005-8.414 1.803-8.433 6.726-.1 26.47-.069 52.94-.028 79.41.007 4.423 2.422 6.825 6.842 6.832 26.47.04 52.94.041 79.41-.007 4.162-.007 6.66-2.295 6.673-6.47.078-26.637.072-53.274.008-79.91-.01-4.17-2.424-6.383-6.593-6.569-1.661-.074-3.329-.017-5.959-.02"/><path fill="#b385c3" d="M310 342c0-8.66-.044-16.822.017-24.982.037-4.941 2.026-6.994 6.861-7 26.148-.035 52.296-.043 78.444.004 5.416.01 7.642 2.18 7.653 7.527q.083 38.972-.002 77.945c-.012 5.391-2.203 7.48-7.671 7.488q-39.223.055-78.445 0c-4.83-.007-6.827-2.059-6.839-7.02-.044-17.82-.018-35.641-.018-53.962M302 353c0 14.156.019 27.812-.008 41.468-.013 6.566-2.007 8.521-8.685 8.525q-38.22.025-76.44 0c-6.3-.003-7.857-1.59-7.86-8.02a64596 64596 0 0 1 0-76.94c.003-6.431 1.56-8.023 7.854-8.026q38.22-.025 76.44 0c6.683.004 8.674 1.956 8.69 8.52.03 11.324.009 22.648.009 34.473M201 322.11c0 24.301.008 48.118-.005 71.935-.003 7.032-1.869 8.945-8.766 8.949q-38.223.023-76.447-.001c-6.034-.004-7.766-1.68-7.772-7.606q-.036-38.973.002-77.946c.006-5.625 1.823-7.426 7.442-7.43 24.65-.023 49.3-.01 73.95-.01 10.589 0 11.595 1.008 11.596 12.109M7 329.005c.001-4.496-.013-8.493.008-12.49.023-4.21 2.014-6.513 6.372-6.513 26.48.004 52.96-.035 79.44.032 4.82.012 7.128 2.254 7.141 7.013q.116 39.47 0 78.939c-.015 4.723-2.36 6.97-7.174 6.981-26.48.064-52.96.058-79.44 0-4.552-.01-6.331-2.225-6.337-7.514C6.987 373.47 7 351.487 7 329.005"/><path fill="#a6c263" d="M345 201c-9.661 0-18.823.034-27.984-.015-4.963-.027-6.986-1.951-6.994-6.85-.043-26.484-.023-52.969-.016-79.453.001-4.44 2.134-6.699 6.693-6.694 26.151.029 52.303-.009 78.454.03 5.629.008 7.82 2.207 7.83 7.846.039 25.651.034 51.303.004 76.955-.007 6.19-2.092 8.164-8.516 8.173-16.323.024-32.647.008-49.471.008M209 121.063c0-2.32-.031-4.154.007-5.986.108-5.163 2.013-7.06 7.297-7.066 25.82-.023 51.64-.027 77.46 0 6.237.007 8.222 2.067 8.227 8.463q.03 37.98.001 75.96c-.005 6.585-1.997 8.555-8.637 8.56q-38.23.023-76.46 0c-6.312-.004-7.883-1.59-7.888-7.98-.017-23.82-.007-47.642-.007-71.951M201 122.056c0 23.478.003 46.466-.002 69.454-.002 7.714-1.716 9.485-9.217 9.487q-37.73.013-75.46-.001c-6.836-.003-8.31-1.416-8.314-8.055q-.025-38.48 0-76.959c.004-6.386 1.579-7.972 7.89-7.976 24.82-.015 49.64-.006 74.46-.006 9.299 0 10.641 1.334 10.643 10.566zM82.983 108c3.66 0 6.826-.045 9.99.013 4.344.08 6.97 2.282 6.983 6.673.077 26.484.066 52.97.014 79.455-.009 4.368-2.453 6.82-6.823 6.828-26.651.054-53.303.045-79.954.007-4.689-.006-6.22-2.889-6.208-7.165.042-14.658.015-29.316.015-43.975 0-11.493-.03-22.987.014-34.48.021-5.569 1.846-7.341 7.51-7.347 22.655-.021 45.308-.009 68.459-.009"/><path fill="#f4e078" d="M310 80.995c0-21.994-.007-43.49.004-64.986.003-7.134 1.791-8.999 8.69-9.003q37.743-.022 75.486 0c6.927.004 8.811 1.915 8.815 8.918.013 25.161.015 50.323-.002 75.485-.004 6.68-1.91 8.58-8.606 8.584q-38.242.025-76.485 0c-6.33-.003-7.864-1.584-7.898-8.001-.02-3.5-.004-6.999-.004-10.997M231.001 7c20.83 0 41.158-.004 61.488.002 7.717.002 9.505 1.732 9.508 9.23.008 24.996.011 49.99-.002 74.985-.004 6.971-1.842 8.775-8.916 8.778q-37.992.018-75.985 0c-6.564-.003-8.087-1.57-8.09-8.311-.01-25.328-.013-50.656.002-75.985.004-6.759 1.878-8.656 8.498-8.694C221.837 6.98 226.17 7 231.001 7M180.996 100c-21.995 0-43.49.009-64.986-.006-6.364-.004-7.998-1.604-8.003-7.895q-.026-38.243 0-76.485c.004-6.696 1.904-8.602 8.582-8.607 25.329-.017 50.657-.02 75.985.003 6.36.006 8.408 2.02 8.415 8.309q.04 38.243 0 76.484c-.006 6.104-2.014 8.12-7.997 8.188-3.832.045-7.665.009-11.996.009M100 22.038c0 23.315.007 46.136-.004 68.958-.003 7.129-1.792 8.994-8.69 8.998q-38.23.022-76.46 0C9.074 99.99 7.028 98.06 7.02 92.31c-.044-25.82-.041-51.64-.003-77.46.008-5.888 2.12-7.836 8.331-7.842 24.987-.022 49.974-.011 74.961-.007 7.982 0 9.678 1.679 9.69 9.546.003 1.665.001 3.331.001 5.49"/><path fill="#b4c4ed" d="M91.657 209c6.736.487 8.327 2.108 8.333 8.337q.038 38.212-.002 76.425c-.007 6.25-2.055 8.224-8.47 8.23q-37.963.03-75.925 0c-6.633-.004-8.58-1.962-8.586-8.62-.017-24.975-.01-49.95-.005-74.925.002-7.702 1.705-9.442 9.27-9.444 24.975-.008 49.95-.003 75.385-.003M130.001 302c-5.16 0-9.822.064-14.482-.019-5.198-.092-7.474-2.157-7.486-7.182-.066-26.135-.061-52.27-.006-78.405.011-5.124 2.212-7.354 7.3-7.365q39.201-.09 78.404.002c5.066.012 7.233 2.255 7.243 7.42.054 25.968.052 51.937.004 77.905-.01 5.581-2.21 7.62-8.053 7.63-20.808.035-41.616.014-62.924.014M209 252c0-11.82-.02-23.14.008-34.459.016-6.6 1.973-8.53 8.668-8.534 25.302-.017 50.605-.02 75.907.003 6.377.005 8.4 1.993 8.406 8.29q.039 38.205 0 76.408c-.007 6.292-2.032 8.277-8.414 8.283-25.47.022-50.938.025-76.407-.003-6.05-.007-8.134-2.063-8.154-8.039C208.97 280.133 209 266.316 209 252M390.889 209c2.147.003 3.815-.054 5.476.02 4.169.186 6.583 2.399 6.593 6.569.064 26.636.07 53.273-.008 79.91-.012 4.175-2.511 6.463-6.672 6.47-26.47.048-52.94.046-79.41.007-4.42-.007-6.836-2.409-6.843-6.831-.04-26.47-.071-52.941.028-79.41.019-4.924 2.51-6.722 8.434-6.727 23.973-.019 47.946-.008 72.402-.008"/></svg>